<svg width="96" height="90" viewBox="0 0 96 90" fill="none" xmlns="http://www.w3.org/2000/svg">
<path d="M70.7013 70.0205C70.7013 73.6844 70.7013 70.5167 70.7013 74.1805C70.7013 75.8216 69.9989 76.5468 68.3601 76.5468C64.2239 76.5468 60.0878 76.5468 55.9517 76.5468C54.3128 76.5468 53.5324 75.7835 53.5324 74.2187C53.4934 72.1578 53.4544 70.0968 53.4544 68.0359C53.4544 62.6164 53.4934 64.0286 53.5324 58.6091C53.5324 57.9603 53.3373 57.7313 52.635 57.7313C44.9871 57.7694 37.3001 57.7694 29.6522 57.7694C29.1449 57.7694 28.7157 57.7313 28.7157 58.4946C28.7547 63.1889 28.7937 67.9214 28.7937 72.6157C28.7937 75.2492 28.7937 71.1273 28.7937 73.7607C28.7937 74.2187 28.7547 74.6385 28.6377 75.0965C28.4035 76.0888 27.7792 76.5468 26.7647 76.5468C22.4725 76.5468 18.1803 76.5468 13.8491 76.5468C12.7175 76.5468 12.0541 76.127 11.703 74.8293C11.5859 74.3714 11.5859 73.8752 11.5859 73.4172C11.5859 66.2421 11.5859 65.8605 11.5859 58.6472C11.5859 57.9603 11.3518 57.7313 10.6494 57.7313C8.38625 57.7694 6.08407 57.7694 3.82091 57.7313C3.23561 57.7313 2.6503 57.5786 2.10402 57.3878C1.20656 57.1588 0.816364 56.51 0.777344 55.6322C0.777344 49.9074 0.777344 44.1444 0.777344 38.4196C0.777344 36.9312 1.79187 36.0152 3.31365 36.0152C4.83543 36.0152 6.31819 35.9771 7.83997 36.0152C8.50331 36.0152 8.73743 35.7862 8.73743 35.1374C8.69841 30.8629 8.73743 26.5502 8.73743 22.2757C8.73743 20.7491 9.36175 20.1766 10.9226 20.1766C15.3708 20.1766 19.8191 20.1766 24.2674 20.1766C25.6721 20.1766 26.2574 20.7109 26.2574 22.0849C26.2574 23.5352 26.2965 24.9854 26.2574 26.4357C26.2574 27.0464 29.6912 27.3135 29.6522 29.7943C29.6522 31.6644 29.6132 33.5345 29.6132 35.4046C29.6132 35.5954 29.9253 35.9389 30.1204 35.9771C31.4861 36.2442 31.9153 35.9007 31.9934 34.5268C32.3836 28.802 32.7738 23.0772 33.203 17.3524C33.5542 12.6199 33.9054 7.92555 34.2956 3.19305C34.3346 2.62057 34.5297 2.04809 34.7638 1.55194C35.115 0.750472 35.8564 0.521483 36.7148 0.559648C39.6413 0.597814 42.5678 0.559648 45.5333 0.559648C46.9381 0.559648 47.7965 1.24662 47.9136 2.62057C48.1477 5.21582 48.3038 7.84922 48.4989 10.4445C48.733 13.345 49.0061 16.2838 49.2402 19.1843C49.4744 22.0849 49.7865 25.0236 49.9816 27.9242C50.1767 30.3668 50.2548 32.8093 50.3718 35.2519C50.4108 35.7862 50.5669 36.0152 51.1132 36.0152C52.5179 35.9771 53.8836 36.0152 55.2883 35.9771C55.4834 35.9771 55.8346 35.6336 55.8346 35.4809C55.8736 34.4504 55.8346 33.42 55.7956 32.3895C55.7956 31.8934 55.5615 31.7789 55.0152 31.7789C52.635 31.7407 51.5814 31.0919 51.5034 28.5348C51.4644 26.0541 51.5034 23.5733 51.5034 21.0926C51.5034 20.7109 51.5424 20.2911 51.6595 19.9476C52.0887 18.6882 52.5569 18.1539 53.6885 18.1157C54.3519 18.0775 55.0152 18.0012 55.6395 18.0394C57.3174 18.1539 58.7221 17.6195 60.0878 16.7417C60.9072 16.2456 61.8437 15.9021 62.7412 15.4823C63.4045 15.177 64.0288 14.8335 64.6922 14.5282C65.5896 14.032 66.4871 13.5359 67.4236 13.0779C68.282 12.6199 69.1795 12.2382 70.0769 11.8184C70.9354 11.3986 71.7938 10.9788 72.6523 10.559C73.7448 10.0246 74.7984 9.5285 75.8909 8.95602C76.7884 8.49803 77.6468 8.00188 78.5443 7.50573C79.1686 7.16225 79.8319 6.81876 80.4953 6.51343C82.0561 5.75013 83.6559 5.06315 85.2167 4.26168C86.6995 3.49837 88.1822 2.65874 89.665 1.89543C91.2648 1.0558 93.2158 0.635979 94.6206 2.46791C94.9717 2.9259 95.0888 3.57471 95.1668 4.14719C95.2449 4.98682 95.1278 5.86463 95.2058 6.74243C95.3619 8.30721 94.3474 9.18501 93.2158 9.98648C92.5915 10.4445 91.9282 10.9024 91.3038 11.3223C90.0942 12.1619 88.8846 13.0015 87.714 13.8412C87.2458 14.1465 86.8165 14.49 86.3873 14.8335C84.4753 16.2456 82.5634 17.6959 80.6124 19.108C78.7004 20.4819 76.7104 21.8177 74.7593 23.1917C73.2766 24.2603 71.7938 25.3671 70.3111 26.4739C69.8818 26.8174 69.4526 27.2372 68.9844 27.428C68.243 27.7715 68.321 28.3058 68.3601 28.8783C68.4771 31.0156 67.2285 31.7025 65.3945 31.7789C64.6141 31.817 64.4581 32.0842 64.4581 32.733C64.4581 33.649 64.4581 34.5649 64.4581 35.4809C64.4581 36.1297 64.9263 36.0534 65.3555 36.0534C68.6332 36.0534 71.9109 36.0534 75.1886 36.0534C76.4762 36.0534 77.7639 36.0534 79.0516 36.0534C80.4953 36.0534 81.6659 37.1983 81.6659 38.6105C81.6659 39.6409 81.6659 40.6714 81.6659 41.7018C81.6659 46.1672 81.5879 50.6325 81.7049 55.0597C81.7439 56.8535 80.4173 57.7694 78.8955 57.8076C76.5543 57.8458 74.2131 57.8458 71.8719 57.8076C71.0134 57.8076 70.7403 57.9984 70.7403 58.8762C70.7013 62.5401 70.7013 66.2803 70.7013 70.0205ZM68.321 22.7337C69.3746 22.0085 70.3111 21.4361 71.2085 20.7873C72.3011 19.9858 73.3156 19.1462 74.4082 18.3828C75.8909 17.3142 77.4127 16.3601 78.8955 15.2915C80.8465 13.8793 82.7975 12.3909 84.7485 10.9788C86.6995 9.56666 88.6505 8.23087 90.6015 6.81876C90.8356 6.62793 90.9137 6.24628 91.0697 5.94096C90.9527 5.90279 90.8746 5.86462 90.7966 5.82646C82.7975 9.83381 74.7984 13.8412 66.6432 17.9249C68.8283 19.0317 68.243 20.9781 68.321 22.7337ZM44.4018 15.406C44.4018 14.9861 44.4408 14.719 44.4018 14.4518C44.1286 11.3223 43.8555 8.19271 43.5433 5.06315C43.5043 4.83416 43.1921 4.49067 42.958 4.49067C41.7484 4.45251 40.5778 4.49067 39.3682 4.45251C38.8219 4.45251 38.7048 4.6815 38.7048 5.17765C38.6658 6.13178 38.4317 7.12408 38.4707 8.07821C38.4707 8.65069 38.7048 9.33767 39.056 9.79565C39.7584 10.7116 40.6558 11.4749 41.4753 12.3146C42.4117 13.2687 43.3092 14.261 44.4018 15.406ZM42.0996 21.3979C40.6168 19.8713 39.2121 18.3447 37.6513 16.7417C37.3391 21.0544 37.066 25.1763 36.7538 29.26C36.7928 29.2981 36.8319 29.2981 36.8709 29.3363C38.6268 26.7029 40.3437 24.1076 42.0996 21.3979ZM45.3773 27.2372C45.1822 27.3899 45.0261 27.4662 44.948 27.5807C44.2457 28.6875 43.5823 29.7943 42.88 30.9011C41.9435 32.3132 41.007 33.7253 40.0705 35.1374C39.9535 35.3282 39.9144 35.5191 39.8364 35.7481C40.0705 35.8244 40.3046 35.9389 40.4997 35.9389C42.1386 35.9389 43.7384 35.9007 45.3773 35.9771C46.0796 36.0152 46.2747 35.7481 46.1577 35.0993C45.9626 33.649 45.8455 32.2369 45.6894 30.7866C45.5724 29.6416 45.4943 28.4967 45.3773 27.2372Z" fill="#005BC3"/>
<path d="M65.044 78.9537C59.4251 78.9537 60.5567 81.7398 53.9233 81.6635C47.3289 81.6253 48.2654 78.8774 40.9296 78.9537C33.5939 78.9919 35.818 81.5871 29.5748 81.5871C23.2536 81.5871 24.112 78.9537 17.4396 78.9537C10.7281 78.9537 12.6791 80.5185 6.78711 81.5871V84.1824C12.5231 83.8007 11.6646 81.3581 17.5566 81.3581C23.5267 81.3581 23.1755 84.2587 29.6138 84.2587C35.9741 84.2587 34.5304 81.3963 40.9687 81.3963C47.368 81.3963 46.9387 84.3732 54.1574 84.2587C61.4542 84.1824 60.2836 81.4345 65.4342 81.5108C70.4288 81.549 68.5949 83.4191 74.9551 84.2587C74.9941 84.2587 74.9941 82.5794 74.9551 81.6635C70.0776 81.1291 70.6239 78.9537 65.044 78.9537Z" fill="#005BC3"/>
<path d="M65.044 84.0988C61.025 84.137 60.5567 86.8849 53.9233 86.7704C47.3289 86.7322 44.9487 84.0988 40.9296 84.0988C36.8716 84.0988 35.818 86.7322 29.5748 86.7322C23.2536 86.7322 21.2635 84.0988 17.4396 84.0988C13.6546 84.0988 12.6791 85.6636 6.78711 86.7322V89.3275C12.5231 88.9458 15.2154 86.5414 17.5566 86.5414C19.9759 86.5414 23.1755 89.4419 29.6138 89.4419C35.9741 89.4419 38.5884 86.5796 40.9687 86.5796C43.3099 86.6559 46.9387 89.5564 54.1574 89.4419C61.4542 89.3656 62.5077 86.7322 65.4342 86.694C67.7754 86.6559 68.7119 88.8313 74.9551 89.4419C74.9941 89.4419 74.9941 87.7627 74.9551 86.8467C70.0776 86.3124 68.9851 83.9843 65.044 84.0988Z" fill="#005BC3"/>
<path d="M23.7592 12.9258H11.4679C10.0242 12.9258 8.89258 14.0707 8.89258 15.4447C8.89258 16.8568 10.0632 17.9636 11.4679 17.9636H23.7592C25.203 17.9636 26.3345 16.8186 26.3345 15.4447C26.3345 14.0707 25.1639 12.9258 23.7592 12.9258Z" fill="#005BC3"/>
</svg>
